<?xml version="1.0" standalone="no"?>
<!DOCTYPE svg PUBLIC "-//W3C//DTD SVG 20010904//EN"
 "http://www.w3.org/TR/2001/REC-SVG-20010904/DTD/svg10.dtd">
<svg version="1.0" xmlns="http://www.w3.org/2000/svg"
 width="512.000000pt" height="512.000000pt" viewBox="0 0 512.000000 512.000000"
 preserveAspectRatio="xMidYMid meet">
<metadata>
Created by potrace 1.14, written by Peter Selinger 2001-2017
</metadata>
<g transform="translate(0.000000,512.000000) scale(0.100000,-0.100000)"
fill="#000000" stroke="none">
<path d="M0 2560 l0 -2560 2560 0 2560 0 0 2560 0 2560 -2560 0 -2560 0 0
-2560z m2280 1148 l0 -158 -126 126 c-89 90 -122 130 -115 137 6 6 11 28 11
49 0 21 4 38 10 38 5 0 12 17 15 38 4 20 13 51 21 69 l14 31 85 -86 85 -85 0
-159z m750 317 c7 -8 21 -15 31 -15 11 0 19 -5 19 -10 0 -6 10 -15 23 -20 12
-6 29 -14 37 -20 28 -18 145 -86 160 -93 8 -4 29 -16 45 -27 17 -11 39 -24 50
-30 11 -5 28 -16 38 -23 16 -13 17 -69 17 -908 l0 -894 243 -242 242 -243 6
-158 c4 -86 10 -167 14 -180 7 -21 6 -22 -31 -17 -59 9 -200 25 -284 33 l-75
7 -65 66 c-36 37 -108 113 -160 170 -52 56 -126 136 -164 176 l-69 73 -897 0
c-708 0 -899 3 -904 13 -3 6 -14 24 -24 39 -9 15 -42 66 -72 114 -30 47 -63
98 -72 113 -10 14 -22 35 -28 46 -20 38 -36 63 -49 79 -12 14 -11 19 7 36 12
11 32 20 46 20 13 0 31 7 40 15 8 8 26 15 39 15 14 0 30 7 37 15 7 8 25 15 40
15 15 0 33 7 40 15 7 8 21 15 31 15 16 0 62 17 109 40 9 4 30 11 48 15 18 3
32 11 32 16 0 5 10 9 23 9 13 0 32 7 43 15 10 8 29 15 41 15 12 0 28 7 37 15
8 8 25 15 38 15 13 0 33 7 44 15 10 8 28 15 39 15 11 0 29 7 39 15 11 8 30 15
42 15 13 0 25 4 28 9 3 5 17 12 31 15 24 6 54 -21 313 -281 l287 -288 346 -3
c292 -2 348 -1 358 12 9 10 11 101 9 357 l-3 344 -292 293 c-161 161 -293 294
-293 296 0 14 34 105 56 149 8 16 14 36 14 46 0 9 7 26 15 37 8 10 15 31 15
45 0 15 7 32 15 39 8 7 15 23 15 37 0 13 7 31 15 39 8 9 15 26 15 39 0 13 4
26 9 30 5 3 13 20 17 37 3 18 10 39 15 48 23 43 39 85 39 100 0 9 7 25 15 36
8 10 15 29 15 42 0 13 7 30 15 38 8 9 15 26 15 40 0 26 27 64 46 64 6 0 17 -7
24 -15z m-978 -436 c40 -37 112 -104 161 -150 l87 -84 0 -152 0 -153 157 0
158 0 252 -253 253 -253 -2 -269 -3 -270 -253 -3 -253 -2 -67 62 c-99 94 -105
100 -295 281 l-176 169 -3 141 -3 142 -141 3 -141 3 -105 112 c-57 61 -125
135 -151 163 l-47 51 22 15 c13 8 34 18 48 22 14 4 34 11 45 16 11 4 61 22
110 40 171 60 160 51 180 138 9 43 23 102 31 133 8 30 14 65 14 76 0 29 29 95
40 91 5 -2 42 -33 82 -69z m-543 -678 c36 -41 72 -80 79 -88 11 -11 -17 -13
-172 -13 l-186 0 -45 46 c-25 25 -45 47 -45 50 0 2 -8 12 -17 23 -10 10 -30
32 -44 48 l-25 31 36 16 c20 9 48 16 61 16 14 0 34 7 45 15 10 8 35 15 54 15
19 0 46 7 60 15 24 13 27 11 79 -43 29 -31 83 -90 120 -131z"/>
</g>
</svg>
